<svg width="274" height="97" viewBox="0 0 274 97" fill="none" xmlns="http://www.w3.org/2000/svg">
<path d="M125.559 36.8417C125.633 37.2761 125.7 37.7104 125.761 38.1631C125.822 38.6097 125.908 39.0502 126.018 39.4845C126.159 40.0596 126.452 40.5062 126.893 40.8304C127.333 41.1547 127.823 41.3076 128.361 41.2892C128.936 41.2525 129.432 41.0568 129.841 40.6958C130.251 40.3349 130.521 39.8638 130.649 39.2704C130.667 39.1114 130.673 38.9462 130.673 38.7749V38.2794C130.71 37.637 130.802 36.9947 130.955 36.3707C131.108 35.7406 131.334 35.141 131.64 34.566C132.087 33.7768 132.448 33.4526 132.717 33.5994C132.986 33.7462 133.163 34.2173 133.255 35.0248C133.31 35.6672 133.347 36.3156 133.377 36.9641C133.402 37.6126 133.445 38.2549 133.5 38.9034C133.555 39.6375 133.812 40.237 134.271 40.6958C134.729 41.1547 135.305 41.3627 135.99 41.326C136.693 41.3076 137.25 41.069 137.654 40.598C138.057 40.133 138.253 39.5029 138.235 38.7137C138.217 38.2121 138.198 37.7227 138.18 37.2455C138.161 36.7683 138.125 36.2912 138.07 35.8017C137.996 35.245 137.923 34.6883 137.849 34.1316C137.776 33.5749 137.672 33.0305 137.525 32.4921C137.329 31.8314 137.017 31.2197 136.601 30.6752C136.185 30.1246 135.678 29.6902 135.084 29.3721C134.485 29.0479 133.812 28.8766 133.059 28.8583C132.301 28.8399 131.493 29.0357 130.637 29.4517C130.453 29.5434 130.288 29.623 130.123 29.6964C129.964 29.7698 129.78 29.8554 129.585 29.9655C129.566 29.7698 129.548 29.6046 129.53 29.4823C129.511 29.3599 129.505 29.2192 129.505 29.0785C129.56 28.0935 129.609 27.1086 129.652 26.1298C129.695 25.151 129.835 24.1783 130.068 23.2056C130.215 22.5571 130.135 22.0065 129.841 21.5477C129.542 21.0889 129.083 20.7708 128.453 20.5934C127.804 20.4159 127.199 20.4832 126.624 20.7952C126.049 21.1072 125.669 21.6028 125.492 22.2635C125.388 22.655 125.302 23.0526 125.253 23.4442C125.198 23.8418 125.143 24.2456 125.094 24.6554C124.843 26.6987 124.782 28.7298 124.905 30.7547C125.027 32.7735 125.247 34.8046 125.553 36.854" fill="#873A1E"/>
<path d="M154.869 38.7688C154.844 38.2427 154.679 37.7777 154.373 37.3801C154.226 37.221 154.116 37.0375 154.037 36.8418C153.957 36.646 153.908 36.438 153.89 36.2239C153.835 35.7039 153.798 35.1778 153.78 34.6516C153.761 34.1194 153.761 33.5994 153.78 33.0794C153.78 32.7185 153.81 32.3759 153.878 32.0578C153.939 31.7335 153.988 31.4154 154.024 31.0912C154.128 30.143 154.031 29.3966 153.731 28.8583C153.425 28.3199 152.831 27.8611 151.957 27.4879C151.076 27.127 150.201 26.9251 149.332 26.87C148.463 26.815 147.576 26.8823 146.677 27.0597C145.692 27.2616 144.824 27.598 144.083 28.0813C143.337 28.5646 142.713 29.1397 142.211 29.8065C141.71 30.4733 141.312 31.1952 141.024 31.9721C140.737 32.7552 140.566 33.5444 140.498 34.3396C140.437 35.1411 140.468 35.9241 140.59 36.6949C140.719 37.4658 140.939 38.157 141.263 38.7688C141.624 39.4662 142.077 40.0535 142.621 40.5184C143.166 40.9834 143.771 41.3076 144.438 41.4728C145.099 41.6441 145.796 41.6502 146.524 41.5034C147.252 41.3504 147.98 40.9834 148.72 40.4144C148.916 40.2493 149.112 40.0841 149.302 39.9006C149.491 39.7232 149.669 39.558 149.828 39.4173C150.134 39.6497 150.421 39.8883 150.69 40.133C150.959 40.3777 151.247 40.5796 151.553 40.7387C152.036 40.9895 152.55 41.0507 153.088 40.9283C153.627 40.806 154.055 40.549 154.379 40.1759C154.734 39.7782 154.905 39.3194 154.875 38.7872M143.221 32.9142C143.453 32.4982 143.735 32.0333 144.04 31.6601C145.362 29.9166 147.729 28.8644 149.864 29.6474C147.65 29.3354 145.711 30.2286 144.212 31.8131C143.863 32.1434 143.545 32.5594 143.221 32.9142ZM150.213 31.342C149.363 33.422 147.332 37.8206 145.417 37.8083C142.407 37.7839 145.998 33.1773 149.687 30.8281C149.968 30.6446 150.348 31.0178 150.213 31.3481" fill="#873A1E"/>
<path d="M157.811 40.965C157.848 41.0017 157.885 41.0384 157.921 41.0751C157.958 41.1118 157.995 41.1363 158.031 41.1547C158.931 41.8398 159.867 42.2925 160.846 42.525C161.824 42.7575 162.852 42.7147 163.929 42.3904C164.626 42.1763 165.232 41.8521 165.746 41.4177C166.254 40.9895 166.651 40.4878 166.933 39.9128C167.208 39.3377 167.361 38.7137 167.391 38.0408C167.416 37.3679 167.287 36.6705 167 35.9547C166.712 35.2879 166.351 34.7067 165.911 34.2051C165.47 33.7034 164.981 33.2446 164.443 32.8347C164.192 32.6389 163.947 32.4493 163.715 32.2719C163.482 32.0945 163.25 31.9048 163.017 31.7091C162.662 31.3665 162.424 31.03 162.32 30.6874C162.21 30.3448 162.21 30.0267 162.32 29.7147C162.516 29.158 162.834 28.8521 163.274 28.7848C163.715 28.7237 164.18 28.8338 164.663 29.1213C165.146 29.4272 165.654 29.5496 166.186 29.4823C166.712 29.4211 167.177 29.1825 167.575 28.7665C167.936 28.375 168.138 27.9161 168.181 27.3961C168.223 26.8762 168.07 26.3806 167.709 25.9157C167.55 25.6832 167.355 25.4691 167.128 25.2672C166.902 25.0715 166.663 24.894 166.413 24.7289C165.782 24.3373 165.128 24.1232 164.449 24.0988C163.764 24.0743 163.078 24.1477 162.375 24.3251C161.549 24.5209 160.815 24.8451 160.179 25.2978C159.542 25.7444 159.01 26.2827 158.588 26.9006C158.166 27.5185 157.872 28.2037 157.713 28.9623C157.554 29.7147 157.542 30.4978 157.689 31.3053C157.836 32.1679 158.148 32.9265 158.631 33.5811C159.114 34.2356 159.689 34.8352 160.356 35.3735C160.607 35.5693 160.858 35.765 161.109 35.9547C161.359 36.1443 161.592 36.334 161.806 36.5359C161.983 36.6827 162.136 36.8356 162.265 37.0069C162.393 37.1782 162.497 37.3617 162.589 37.5575C162.693 37.8083 162.693 38.0041 162.577 38.1387C162.461 38.2733 162.277 38.3039 162.026 38.2304C161.861 38.1937 161.708 38.1448 161.555 38.0836C161.402 38.0224 161.255 37.949 161.109 37.8573C160.986 37.7839 160.87 37.7104 160.772 37.6248C160.674 37.5453 160.57 37.4657 160.46 37.3984C159.903 37.1109 159.341 37.0253 158.778 37.1415C158.209 37.2577 157.75 37.5514 157.389 38.0163C157.065 38.4813 156.942 38.9829 157.01 39.509C157.083 40.0413 157.352 40.5246 157.817 40.9773" fill="#873A1E"/>
<path d="M170.738 40.965C170.774 41.0017 170.811 41.0384 170.848 41.0751C170.885 41.1118 170.921 41.1363 170.958 41.1547C171.851 41.8398 172.793 42.2925 173.772 42.525C174.751 42.7575 175.779 42.7147 176.855 42.3904C177.553 42.1763 178.158 41.8521 178.672 41.4177C179.18 40.9895 179.578 40.4878 179.853 39.9128C180.134 39.3377 180.281 38.7137 180.312 38.0408C180.336 37.3679 180.208 36.6705 179.92 35.9547C179.633 35.2879 179.266 34.7067 178.831 34.2051C178.391 33.7034 177.901 33.2446 177.363 32.8347C177.112 32.6389 176.868 32.4493 176.635 32.2719C176.403 32.0945 176.17 31.9048 175.938 31.7091C175.583 31.3665 175.344 31.03 175.24 30.6874C175.13 30.3448 175.13 30.0267 175.24 29.7147C175.436 29.158 175.754 28.8521 176.195 28.7848C176.635 28.7237 177.094 28.8338 177.583 29.1213C178.067 29.4272 178.574 29.5496 179.107 29.4823C179.639 29.4211 180.098 29.1825 180.495 28.7665C180.856 28.375 181.058 27.9161 181.101 27.3961C181.144 26.8762 180.991 26.3806 180.63 25.9157C180.471 25.6832 180.275 25.4691 180.049 25.2672C179.822 25.0715 179.584 24.894 179.333 24.7289C178.709 24.3373 178.048 24.1232 177.369 24.0988C176.684 24.0743 175.999 24.1477 175.295 24.3251C174.469 24.5209 173.735 24.8451 173.099 25.2978C172.463 25.7444 171.931 26.2827 171.509 26.9006C171.086 27.5185 170.793 28.2037 170.634 28.9623C170.475 29.7147 170.462 30.4978 170.609 31.3053C170.756 32.1679 171.068 32.9265 171.551 33.5811C172.035 34.2356 172.61 34.8352 173.277 35.3735C173.527 35.5693 173.778 35.765 174.029 35.9547C174.28 36.1443 174.512 36.334 174.726 36.5359C174.904 36.6827 175.057 36.8356 175.185 37.0069C175.308 37.1782 175.418 37.3617 175.509 37.5575C175.62 37.8083 175.613 38.0041 175.497 38.1387C175.381 38.2733 175.197 38.3039 174.947 38.2304C174.781 38.1937 174.629 38.1448 174.476 38.0836C174.323 38.0224 174.176 37.949 174.029 37.8573C173.901 37.7839 173.79 37.7104 173.693 37.6248C173.595 37.5453 173.491 37.4657 173.381 37.3984C172.824 37.1109 172.261 37.0253 171.698 37.1415C171.129 37.2577 170.67 37.5514 170.31 38.0163C169.985 38.4813 169.857 38.9829 169.93 39.509C170.004 40.0413 170.273 40.5246 170.738 40.9773" fill="#873A1E"/>
<path d="M190.467 36.7806C190.73 36.7439 190.999 36.7072 191.268 36.6582C192.07 36.5175 192.816 36.2667 193.507 35.918C194.193 35.5693 194.792 35.1044 195.294 34.5293C195.802 33.9543 196.126 33.2263 196.266 32.3453C196.407 31.4827 196.346 30.614 196.077 29.7331C195.808 28.8522 195.373 28.0752 194.768 27.4023C194.168 26.7294 193.416 26.2155 192.522 25.8545C191.623 25.4936 190.632 25.4141 189.537 25.6159C186.937 26.0809 185.077 27.4145 183.964 29.623C183.156 31.2258 182.795 32.7919 182.887 34.3335C182.979 35.8813 183.542 37.3924 184.582 38.8851C184.992 39.4601 185.53 39.9801 186.197 40.445C186.864 40.91 187.586 41.277 188.381 41.5462C189.17 41.8154 190.002 41.9622 190.883 41.9928C191.764 42.0234 192.62 41.8705 193.465 41.5462C193.697 41.4545 193.93 41.3566 194.15 41.2465C194.376 41.1425 194.584 41.0017 194.786 40.8427C195.055 40.6102 195.251 40.2982 195.367 39.9128C195.483 39.5274 195.514 39.142 195.459 38.7566C195.404 38.3712 195.263 38.0286 195.031 37.7227C194.798 37.4168 194.474 37.2272 194.064 37.1538C193.74 37.0865 193.391 37.0865 193.012 37.1538C192.639 37.2272 192.278 37.3618 191.935 37.5575C191.397 37.8451 190.871 37.9001 190.369 37.7227C190.369 37.7227 190.363 37.7227 190.357 37.7227C189.88 37.5514 189.971 36.8418 190.473 36.7745M185.438 32.2413C185.591 31.7886 185.793 31.287 186.032 30.8649C187.035 28.9195 189.182 27.4757 191.421 27.8795C189.188 27.9529 187.433 29.1642 186.227 30.9872C185.946 31.3726 185.701 31.8376 185.438 32.2413ZM187.09 33.7157C186.833 33.7891 186.613 33.318 186.778 33.055C187.836 31.4032 190.247 27.9957 191.739 28.6564C194.082 29.6903 190.412 32.7674 187.09 33.7157Z" fill="#873A1E"/>
<path d="M199.301 37.4902C199.46 38.0286 199.668 38.5363 199.919 39.0135C200.17 39.4907 200.482 39.9311 200.861 40.3471C201.277 40.7937 201.73 41.1363 202.219 41.3688C202.714 41.6013 203.21 41.7236 203.712 41.7297C204.213 41.742 204.715 41.638 205.204 41.43C205.7 41.222 206.159 40.9038 206.593 40.4756C206.752 40.3104 206.905 40.1514 207.052 39.9801C207.193 39.8088 207.339 39.6314 207.48 39.454C207.676 39.6864 207.859 39.9189 208.018 40.1391C208.178 40.3655 208.361 40.5735 208.557 40.7693C209.003 41.1853 209.517 41.3871 210.105 41.3871C210.692 41.3871 211.206 41.1975 211.652 40.8243C212.068 40.4817 212.307 40.0718 212.38 39.5886C212.454 39.1053 212.362 38.5853 212.111 38.0286C211.934 37.6309 211.769 37.2394 211.616 36.8417C211.463 36.4502 211.334 36.0465 211.224 35.6305C211.028 34.7128 210.943 33.8196 210.979 32.9387C211.016 32.0578 211.059 31.1646 211.114 30.247C211.132 29.9961 211.151 29.7514 211.169 29.5067C211.187 29.262 211.187 29.0173 211.169 28.7665C211.096 28.1914 210.875 27.7143 210.508 27.3411C210.141 26.9679 209.676 26.7293 209.12 26.6376C208.581 26.5458 208.074 26.6498 207.596 26.9496C207.119 27.2432 206.783 27.6531 206.587 28.1731C206.514 28.3688 206.452 28.5646 206.397 28.7543C206.342 28.9439 206.281 29.1274 206.208 29.3048C206.153 29.7698 206.116 30.2775 206.085 30.8281C206.055 31.3726 206.03 31.9293 206.006 32.486C205.981 33.0427 205.932 33.5749 205.871 34.0766C205.81 34.5782 205.712 35.0003 205.59 35.3429C205.376 35.9547 205.07 36.3034 204.684 36.3952C204.299 36.4869 203.981 36.3523 203.73 35.9914C203.534 35.7222 203.394 35.3368 203.314 34.8352C203.235 34.3335 203.186 33.8013 203.179 33.2446C203.167 32.6879 203.179 32.1434 203.216 31.6173C203.253 31.0912 203.296 30.6507 203.351 30.3143C203.387 30.0267 203.461 29.7637 203.565 29.5312C203.73 29.2253 203.822 28.9256 203.846 28.6319C203.871 28.3383 203.846 28.0569 203.754 27.7999C203.663 27.543 203.528 27.3044 203.351 27.0964C203.173 26.8884 202.978 26.7232 202.757 26.6009C202.182 26.295 201.589 26.1971 200.965 26.3072C200.347 26.4173 199.845 26.7416 199.472 27.2738C199.203 27.6898 199.026 28.1058 198.934 28.5401C198.591 30.0634 198.444 31.5745 198.487 33.0611C198.53 34.5476 198.799 36.0342 199.283 37.5024" fill="#873A1E"/>
<path d="M223.343 25.2917C222.75 25.0959 222.175 25.0348 221.618 25.1143C221.061 25.1938 220.523 25.3774 220.003 25.6649C219.752 25.7933 219.52 25.9279 219.305 26.0686C219.091 26.2155 218.865 26.3562 218.633 26.503C218.541 26.3378 218.473 26.191 218.418 26.0564C218.363 25.9218 218.29 25.7933 218.204 25.6649C217.953 25.255 217.605 24.9491 217.158 24.7656C216.712 24.5759 216.259 24.527 215.812 24.6188C215.292 24.7105 214.864 24.9246 214.522 25.2611C214.179 25.6037 213.983 26.0136 213.928 26.503C213.891 26.6498 213.867 26.7966 213.861 26.9618C213.855 27.1209 213.861 27.2738 213.873 27.4206C214.014 29.4333 214.161 31.4338 214.301 33.422C214.448 35.4164 214.589 37.4168 214.736 39.4234C214.772 39.7843 214.833 40.1086 214.925 40.3961C215.121 41.0262 215.488 41.485 216.014 41.7848C216.54 42.0784 217.121 42.1641 217.752 42.0417C218.345 41.901 218.81 41.589 219.153 41.1119C219.495 40.6347 219.599 40.0963 219.477 39.4846C219.299 38.518 219.232 37.5698 219.287 36.646C219.342 35.7222 219.416 34.7801 219.501 33.8319C219.66 32.3453 220.327 31.0851 221.496 30.0634C221.691 29.886 221.893 29.7453 222.101 29.6474C222.309 29.5496 222.554 29.5006 222.841 29.5006C223.435 29.4823 223.93 29.2926 224.334 28.9378C224.738 28.5769 224.964 28.1303 225.019 27.5919C225.074 27.0903 224.946 26.6315 224.646 26.2155C224.34 25.8056 223.912 25.4997 223.355 25.2978" fill="#873A1E"/>
<path d="M235.548 25.6098C235.321 25.414 235.083 25.2366 234.832 25.0715C234.208 24.6799 233.547 24.4658 232.868 24.4413C232.189 24.4169 231.498 24.4903 230.794 24.6677C229.969 24.8635 229.234 25.1877 228.598 25.6404C227.962 26.087 227.43 26.6253 227.008 27.2432C226.585 27.8611 226.292 28.5463 226.133 29.3048C225.968 30.0573 225.961 30.8404 226.102 31.6479C226.243 32.5105 226.561 33.2691 227.044 33.9236C227.528 34.5782 228.103 35.1778 228.769 35.7161C229.02 35.918 229.271 36.1076 229.522 36.2973C229.773 36.4869 230.005 36.6766 230.219 36.8723C230.397 37.0192 230.55 37.1721 230.678 37.3434C230.801 37.5147 230.911 37.6982 231.002 37.894C231.113 38.1448 231.106 38.3406 230.99 38.4752C230.874 38.6097 230.69 38.6403 230.44 38.5669C230.281 38.5302 230.121 38.4813 229.969 38.4201C229.816 38.3589 229.669 38.2794 229.522 38.1937C229.393 38.1203 229.283 38.0469 229.185 37.9674C229.081 37.8879 228.984 37.8083 228.873 37.741C228.317 37.4535 227.754 37.3679 227.191 37.4841C226.628 37.6003 226.163 37.894 225.802 38.3589C225.478 38.8239 225.35 39.3255 225.423 39.8516C225.497 40.3838 225.766 40.8733 226.231 41.3198C226.267 41.3565 226.304 41.3933 226.341 41.4238C226.371 41.4605 226.414 41.485 226.445 41.5034C227.344 42.1885 228.28 42.6412 229.259 42.8737C230.238 43.1062 231.265 43.0634 232.342 42.7391C233.04 42.525 233.645 42.2008 234.159 41.7664C234.673 41.3321 235.065 40.8304 235.34 40.2615C235.621 39.6864 235.774 39.0624 235.799 38.3895C235.823 37.7166 235.695 37.0192 235.407 36.3034C235.12 35.6366 234.753 35.0554 234.318 34.5538C233.878 34.0521 233.388 33.5933 232.85 33.1834C232.599 32.9877 232.361 32.798 232.122 32.6206C231.889 32.4432 231.657 32.2535 231.425 32.0517C231.064 31.7091 230.831 31.3665 230.727 31.03C230.623 30.6874 230.623 30.3693 230.727 30.0634C230.923 29.5067 231.241 29.1947 231.681 29.1336C232.122 29.0724 232.581 29.1825 233.07 29.47C233.553 29.7759 234.061 29.8983 234.593 29.831C235.126 29.7698 235.584 29.5312 235.982 29.1152C236.343 28.7176 236.545 28.2649 236.588 27.7449C236.631 27.2249 236.478 26.7293 236.117 26.2644C235.958 26.0319 235.762 25.8178 235.542 25.6159" fill="#873A1E"/>
<path d="M104.514 48.8629C104.508 48.4958 104.386 48.196 104.154 47.9636C103.927 47.7372 103.64 47.6271 103.285 47.6393C102.918 47.6393 102.612 47.7617 102.379 48.0064C102.141 48.245 102.019 48.5631 102.006 48.9546C101.982 49.5052 101.982 50.0558 101.994 50.6003C101.994 51.1386 102.006 51.6892 102.006 52.2459V52.7843C101.492 52.6252 100.991 52.5946 100.514 52.6741C100.03 52.7537 99.5898 52.925 99.1922 53.1697C98.7884 53.4144 98.4336 53.7386 98.1277 54.124C97.8218 54.5155 97.5832 54.9377 97.4058 55.3965C97.2712 55.7635 97.1795 56.1551 97.1428 56.5772C97.1061 56.9932 97.1244 57.4092 97.2039 57.8252C97.2773 58.2351 97.4242 58.6266 97.6383 58.9998C97.8463 59.3668 98.1216 59.6849 98.4703 59.948C98.9352 60.2906 99.4675 60.5292 100.067 60.6699C100.667 60.8106 101.266 60.8473 101.866 60.78C101.982 60.7616 102.092 60.7555 102.202 60.7616C102.312 60.7739 102.422 60.8106 102.538 60.8779C102.789 61.0125 103.034 61.0797 103.266 61.0736C103.499 61.0736 103.707 61.0063 103.878 60.8901C104.05 60.7739 104.196 60.6087 104.3 60.4007C104.41 60.1866 104.459 59.9357 104.459 59.6421C104.472 58.3146 104.478 56.9871 104.49 55.6595C104.496 54.3381 104.508 53.0106 104.521 51.677C104.551 50.7471 104.551 49.8111 104.521 48.8812M102.844 55.6289C102.141 56.7424 100.544 59.0487 99.5348 58.6143C97.9564 57.9353 100.403 55.8431 102.63 55.1824C102.802 55.1334 102.954 55.4515 102.844 55.6228" fill="#873A1E"/>
<path d="M111.654 57.8252C112.027 57.6355 112.351 57.3847 112.62 57.0727C112.896 56.7607 113.067 56.3692 113.146 55.892C113.226 55.4271 113.189 54.956 113.049 54.4789C112.902 54.0017 112.669 53.5857 112.345 53.2186C112.015 52.8516 111.611 52.5763 111.128 52.3805C110.638 52.1847 110.106 52.148 109.506 52.252C108.099 52.509 107.096 53.2309 106.49 54.4238C106.056 55.2864 105.86 56.1367 105.909 56.9748C105.958 57.8068 106.264 58.6327 106.827 59.4402C107.053 59.7522 107.341 60.0336 107.702 60.2845C108.063 60.5353 108.454 60.7311 108.882 60.8779C109.311 61.0247 109.763 61.1042 110.241 61.1165C110.712 61.1287 111.183 61.0492 111.642 60.8779C111.764 60.8289 111.886 60.78 112.009 60.7188C112.131 60.6576 112.241 60.5842 112.351 60.4986C112.498 60.3762 112.602 60.2049 112.663 59.9969C112.724 59.7889 112.743 59.5809 112.712 59.3729C112.688 59.1649 112.608 58.9753 112.48 58.8162C112.357 58.6511 112.18 58.5471 111.96 58.5104C111.788 58.4675 111.593 58.4675 111.391 58.5104C111.189 58.5471 110.993 58.6205 110.81 58.7245C110.516 58.8835 110.234 58.9141 109.965 58.8162C109.696 58.7184 109.439 58.5654 109.207 58.3635C109.61 58.3513 110.02 58.3146 110.455 58.2289C110.889 58.1555 111.287 58.0209 111.666 57.8313M108.32 56.9075C108.197 56.9443 108.087 56.7179 108.167 56.5894C108.674 55.8064 109.825 54.1791 110.534 54.4911C111.654 54.9866 109.898 56.4487 108.32 56.9014" fill="#873A1E"/>
<path d="M128.691 66.084C128.722 65.9371 128.746 65.7964 128.771 65.6496C129.077 63.6614 129.266 61.6793 129.34 59.7033C129.432 58.2167 129.499 56.7301 129.542 55.2497C129.585 53.7692 129.646 52.2704 129.719 50.7655C129.737 50.3923 129.676 50.0497 129.529 49.7438C129.389 49.4379 129.187 49.181 128.936 48.973C128.685 48.765 128.392 48.612 128.061 48.5203C127.731 48.4163 127.376 48.3979 126.997 48.453C126.55 48.5448 126.183 48.7222 125.896 48.9913C125.608 49.2605 125.351 49.5848 125.119 49.964C124.868 49.909 124.629 49.8539 124.403 49.7989C124.183 49.7438 123.95 49.701 123.718 49.6643C123.002 49.5358 122.292 49.5236 121.601 49.6215C120.916 49.7193 120.261 49.9273 119.65 50.2393C119.038 50.5513 118.493 50.9673 118.01 51.4751C117.527 51.989 117.141 52.5763 116.854 53.237C116.242 54.6563 115.991 56.0633 116.089 57.4642C116.187 58.8652 116.64 60.2172 117.447 61.5325C117.79 62.0892 118.187 62.5357 118.646 62.8783C119.105 63.2209 119.601 63.4534 120.139 63.5757C120.677 63.7042 121.234 63.7164 121.809 63.6186C122.311 63.5329 122.8 63.3616 123.29 63.1047C123.259 63.6002 123.222 64.0957 123.179 64.5851C123.124 65.1908 122.757 66.4265 122.678 67.0261C121.846 67.0628 121.283 66.9282 120.426 66.9404C118.958 66.9649 117.551 67.0077 116.132 67.332C114.982 67.595 113.85 67.9009 112.773 68.2557C112.351 68.3903 111.935 68.5371 111.525 68.6901C105.915 70.7762 99.7122 74.2326 100.275 80.6867C100.856 87.2815 108.112 89.1718 113.667 88.3766C119.448 87.5507 124.299 81.274 126.342 75.8293C126.458 75.5112 126.575 75.1931 126.685 74.8689C127.052 73.7799 127.364 72.6665 127.627 71.5286C127.823 71.5225 128.018 71.5164 128.22 71.5103M121.301 73.8656C121.301 73.8656 121.301 73.8839 121.295 73.89C121.283 73.939 121.271 73.9879 121.246 74.0369C121.24 74.0613 121.228 74.0858 121.222 74.1103C121.21 74.147 121.197 74.1837 121.179 74.2204C121.179 74.2204 121.179 74.2204 121.179 74.2265C121.148 74.3183 121.118 74.3978 121.081 74.4896C121.081 74.4957 121.081 74.5079 121.081 74.514C121.038 74.6364 120.989 74.7587 120.946 74.875C119.723 78.0867 117.661 81.4698 113.966 82.7789C111.238 83.7455 103.193 83.6109 106.136 78.3498C107.102 76.6185 109.77 75.0891 112.767 73.9206C113.758 73.5352 114.78 73.1865 115.795 72.8867C115.979 72.8317 116.169 72.7766 116.352 72.7216C116.37 72.7155 116.395 72.7093 116.413 72.7032C116.823 72.5747 117.398 72.4096 118.01 72.2872C118.01 72.2872 118.016 72.2872 118.022 72.2872C118.579 72.1771 119.166 72.0915 119.692 72.0915C120.341 72.0915 120.898 72.2199 121.191 72.5748C121.424 72.85 121.491 73.266 121.32 73.8717M125.694 54.7541C124.733 56.7668 122.506 60.9207 120.898 60.0765C118.371 58.7489 121.938 55.0294 125.314 53.9344C125.571 53.8487 125.847 54.4421 125.694 54.7541ZM120.084 54.5278C119.735 54.8581 119.417 55.268 119.093 55.629C119.325 55.213 119.607 54.748 119.913 54.3748C121.234 52.6313 123.602 51.5791 125.737 52.3622C123.522 52.0502 121.583 52.9433 120.084 54.5278Z" fill="#873A1E"/>
<path d="M132.411 56.412C132.552 58.4063 132.698 60.4068 132.839 62.4134C132.876 62.7743 132.937 63.0985 133.029 63.38C133.225 64.0101 133.592 64.4689 134.118 64.7687C134.644 65.0623 135.225 65.1479 135.855 65.0256C136.449 64.8849 136.913 64.5729 137.256 64.0957C137.599 63.6185 137.703 63.0802 137.58 62.4684C137.403 61.5018 137.336 60.5536 137.391 59.6299C137.446 58.7061 137.513 57.7701 137.605 56.8158C137.764 55.3231 138.431 54.0689 139.599 53.0473C139.795 52.8699 139.997 52.7292 140.205 52.6313C140.413 52.5334 140.657 52.4845 140.945 52.4845C141.538 52.4661 142.034 52.2765 142.438 51.9217C142.841 51.5607 143.074 51.1141 143.123 50.5758C143.178 50.0741 143.049 49.6153 142.744 49.2054C142.438 48.7956 142.009 48.4897 141.453 48.2939C140.859 48.0982 140.284 48.037 139.728 48.1165C139.171 48.196 138.633 48.3796 138.113 48.6671C137.862 48.7956 137.629 48.9301 137.415 49.0709C137.201 49.2116 136.975 49.3584 136.742 49.4991C136.65 49.3339 136.577 49.1871 136.528 49.0525C136.473 48.9179 136.4 48.7894 136.314 48.661C136.063 48.2511 135.714 47.9452 135.262 47.7617C134.815 47.572 134.362 47.5231 133.916 47.6149C133.396 47.7066 132.961 47.9207 132.625 48.2572C132.282 48.5998 132.087 49.0097 132.032 49.493C131.995 49.6398 131.97 49.7866 131.964 49.9518C131.958 50.117 131.964 50.2638 131.977 50.4106C132.117 52.4172 132.264 54.4238 132.411 56.412Z" fill="#873A1E"/>
<path d="M158.105 61.7588C158.074 61.2327 157.915 60.7678 157.609 60.3701C157.469 60.2111 157.352 60.0275 157.273 59.8318C157.193 59.636 157.144 59.428 157.126 59.2078C157.071 58.6878 157.034 58.1617 157.016 57.6355C156.998 57.1033 156.998 56.5833 157.016 56.0572C157.016 55.6963 157.047 55.3598 157.108 55.0356C157.169 54.7113 157.218 54.3871 157.255 54.0629C157.365 53.1146 157.267 52.3683 156.961 51.8299C156.655 51.2916 156.068 50.8328 155.187 50.4535C154.306 50.0925 153.431 49.8845 152.562 49.8356C151.687 49.7805 150.807 49.8417 149.907 50.0252C148.916 50.221 148.054 50.5636 147.307 51.0469C146.561 51.5302 145.943 52.1052 145.435 52.772C144.934 53.4327 144.536 54.1546 144.255 54.9377C143.967 55.7146 143.79 56.5038 143.728 57.3052C143.667 58.1005 143.698 58.8897 143.82 59.6605C143.949 60.4313 144.169 61.1226 144.493 61.7343C144.854 62.4318 145.307 63.019 145.851 63.484C146.402 63.9489 147.008 64.2732 147.668 64.4383C148.335 64.6096 149.026 64.6157 149.754 64.4689C150.482 64.316 151.21 63.9489 151.944 63.3739C152.14 63.2148 152.336 63.0435 152.526 62.86C152.715 62.6826 152.887 62.5174 153.052 62.3767C153.358 62.6092 153.645 62.8477 153.914 63.0863C154.183 63.331 154.465 63.5329 154.771 63.692C155.254 63.9428 155.768 64.0101 156.306 63.8816C156.845 63.7532 157.279 63.5085 157.597 63.1292C157.958 62.7315 158.123 62.2727 158.093 61.7405M147.216 54.2341C146.867 54.5645 146.549 54.9744 146.224 55.3353C146.457 54.9193 146.738 54.4544 147.044 54.0812C148.366 52.3377 150.733 51.2855 152.868 52.0685C150.654 51.7565 148.714 52.6497 147.216 54.2341ZM153.847 53.7998C152.997 55.8798 150.972 60.2783 149.051 60.26C146.041 60.2355 149.632 55.629 153.321 53.2798C153.602 53.0963 153.982 53.4694 153.847 53.7998Z" fill="#873A1E"/>
<path d="M159.732 47.8107C159.75 48.3796 159.983 48.869 160.429 49.2789C160.876 49.6888 161.414 49.8968 162.045 49.8968C162.669 49.8784 163.201 49.6582 163.629 49.2422C164.063 48.8201 164.277 48.3184 164.277 47.7311C164.277 47.4436 164.216 47.1744 164.088 46.9175C163.959 46.6605 163.794 46.4281 163.592 46.2201C163.384 46.0121 163.146 45.853 162.877 45.7368C162.607 45.6205 162.32 45.5655 162.014 45.5655C161.347 45.5655 160.797 45.7796 160.356 46.2201C159.916 46.6605 159.701 47.1867 159.72 47.8107" fill="#873A1E"/>
<path d="M160.54 61.3122C160.54 61.924 160.644 62.4256 160.864 62.8233C161.078 63.2209 161.445 63.5146 161.965 63.7103C162.344 63.8571 162.711 63.9061 163.085 63.8571C163.452 63.8143 163.782 63.6981 164.082 63.5084C164.382 63.3188 164.626 63.0741 164.822 62.7682C165.018 62.4623 165.134 62.1136 165.171 61.716C165.262 60.4435 165.287 59.1772 165.25 57.9353C165.214 56.6873 165.134 55.4026 165.005 54.069C164.92 53.5673 164.755 53.0963 164.522 52.668C164.235 52.2031 163.806 51.8911 163.244 51.7259C162.681 51.5669 162.136 51.5852 161.616 51.781C161.096 51.9951 160.717 52.3316 160.485 52.7904C160.252 53.2492 160.197 53.7753 160.326 54.3687C160.503 55.4271 160.582 56.5221 160.57 57.6539C160.552 58.7856 160.546 60.003 160.546 61.3183" fill="#873A1E"/>
<path d="M171.955 51.2426C171.918 51.1692 171.882 51.1203 171.845 51.0835C171.539 50.5452 171.154 50.1659 170.689 49.9396C170.224 49.7132 169.728 49.6765 169.208 49.8172C168.652 49.964 168.223 50.2332 167.917 50.637C167.612 51.0407 167.459 51.5546 167.459 52.1847C167.459 52.4355 167.459 52.6802 167.471 52.9127C167.483 53.1452 167.501 53.3899 167.538 53.6407C167.63 54.7174 167.722 55.7941 167.82 56.8708C167.917 57.9475 168.015 59.0364 168.101 60.1315C168.138 60.4374 168.156 60.7249 168.156 61.0063C168.156 61.2877 168.181 61.5753 168.236 61.8811C168.291 62.2727 168.425 62.6153 168.639 62.9028C168.853 63.1903 169.116 63.4105 169.416 63.5757C169.722 63.7409 170.052 63.8327 170.401 63.8571C170.75 63.8877 171.105 63.8143 171.466 63.6552C172.31 63.276 172.775 62.6153 172.867 61.6609C172.958 60.8717 173.062 60.0948 173.191 59.3301C173.313 58.5654 173.521 57.8068 173.809 57.0543C173.986 56.5894 174.206 56.1489 174.451 55.7329C174.702 55.3231 175.032 54.9621 175.448 54.6562C176.366 53.9405 177.008 54.0995 177.388 55.1395C177.528 55.6045 177.651 56.0878 177.748 56.5833C177.846 57.0788 177.914 57.5743 177.95 58.076C178.005 58.5776 178.012 59.0854 177.963 59.5993C177.92 60.1131 177.877 60.6209 177.84 61.1226C177.693 62.395 178.085 63.276 178.996 63.7592C179.339 63.9183 179.688 64.004 180.049 64.0162C180.404 64.0223 180.74 63.955 181.058 63.8143C181.37 63.6736 181.645 63.4595 181.878 63.1842C182.11 62.9089 182.282 62.5663 182.386 62.1748C182.636 61.1715 182.753 60.1682 182.722 59.171C182.698 58.1739 182.612 57.1645 182.465 56.1428C182.355 55.4271 182.184 54.7296 181.951 54.0567C181.719 53.3838 181.395 52.7598 180.985 52.1847C179.657 50.3556 177.865 49.5786 175.601 49.8723C174.934 49.964 174.329 50.1537 173.766 50.4534C173.209 50.7471 172.652 51.1019 172.096 51.5179C172.022 51.4078 171.967 51.3221 171.937 51.2487" fill="#873A1E"/>
<path d="M192.945 59.7706C193.208 59.7339 193.477 59.6972 193.746 59.6482C194.547 59.5075 195.288 59.2567 195.979 58.908C196.67 58.5593 197.27 58.0944 197.765 57.5254C198.273 56.9504 198.597 56.2224 198.738 55.3414C198.879 54.4789 198.818 53.6102 198.548 52.7292C198.279 51.8483 197.845 51.0713 197.245 50.3984C196.646 49.7255 195.893 49.2116 194.994 48.8506C194.095 48.4958 193.104 48.4102 192.009 48.6121C189.409 49.077 187.549 50.4106 186.436 52.6191C185.628 54.2158 185.267 55.788 185.359 57.3297C185.451 58.8713 186.02 60.3885 187.053 61.8812C187.469 62.4562 188.002 62.9762 188.668 63.4412C189.335 63.9061 190.057 64.2732 190.852 64.5423C191.642 64.8115 192.474 64.9583 193.355 64.9889C194.235 65.0134 195.098 64.8666 195.936 64.5423C196.169 64.4506 196.401 64.3527 196.621 64.2487C196.848 64.1447 197.056 64.004 197.251 63.8449C197.521 63.6125 197.716 63.3066 197.833 62.9212C197.949 62.5358 197.979 62.1442 197.924 61.7588C197.875 61.3734 197.729 61.0308 197.496 60.7249C197.264 60.4191 196.939 60.2294 196.523 60.156C196.205 60.0887 195.851 60.0887 195.477 60.156C195.098 60.2294 194.737 60.364 194.401 60.5598C193.862 60.8473 193.342 60.9024 192.841 60.7249H192.828C192.351 60.5536 192.443 59.844 192.945 59.7767M188.252 55.8614C188.375 55.3965 188.54 54.8826 188.748 54.4483C189.611 52.4417 191.66 50.845 193.917 51.0958C191.691 51.3222 190.027 52.6558 188.95 54.5523C188.693 54.956 188.479 55.4332 188.252 55.8614ZM190.033 57.0421C189.776 57.1155 189.555 56.6384 189.721 56.3814C190.779 54.7358 193.189 51.3222 194.682 51.9829C197.025 53.0167 193.348 56.0939 190.033 57.0421Z" fill="#873A1E"/>
<path d="M211.004 48.2572C210.777 48.0615 210.539 47.8841 210.288 47.7189C209.658 47.3274 209.003 47.1132 208.324 47.0888C207.645 47.0643 206.954 47.1377 206.25 47.3151C205.425 47.5109 204.69 47.8351 204.054 48.2878C203.418 48.7344 202.886 49.2728 202.464 49.8906C202.041 50.5085 201.748 51.1937 201.589 51.9523C201.424 52.7047 201.418 53.4878 201.558 54.2953C201.705 55.1579 202.017 55.9165 202.5 56.5711C202.984 57.2257 203.559 57.8252 204.225 58.3635C204.476 58.5593 204.727 58.7551 204.978 58.9447C205.229 59.1344 205.461 59.324 205.675 59.5259C205.853 59.6727 206.006 59.8256 206.134 59.9969C206.263 60.1682 206.367 60.3518 206.458 60.5475C206.562 60.7983 206.562 60.988 206.446 61.1226C206.33 61.2572 206.146 61.2878 205.896 61.2205C205.737 61.1838 205.577 61.1348 205.425 61.0736C205.272 61.0125 205.125 60.9329 204.984 60.8473C204.856 60.7739 204.745 60.7005 204.648 60.6209C204.55 60.5414 204.446 60.4619 204.336 60.3946C203.779 60.1071 203.222 60.0214 202.653 60.1376C202.09 60.2539 201.626 60.5475 201.265 61.0125C200.94 61.4774 200.818 61.979 200.885 62.5052C200.959 63.0374 201.228 63.5268 201.693 63.9734C201.73 64.0101 201.766 64.0468 201.803 64.0835C201.84 64.1202 201.876 64.1447 201.907 64.163C202.806 64.8421 203.742 65.3009 204.721 65.5334C205.7 65.7659 206.728 65.723 207.804 65.3988C208.508 65.1847 209.107 64.8604 209.621 64.4261C210.129 63.9917 210.527 63.4901 210.808 62.9212C211.083 62.3461 211.236 61.7221 211.267 61.0492C211.297 60.3762 211.163 59.6788 210.875 58.9631C210.588 58.2962 210.227 57.7151 209.786 57.2134C209.346 56.7118 208.857 56.253 208.318 55.8431C208.067 55.6473 207.823 55.4577 207.59 55.2803C207.358 55.1028 207.125 54.9132 206.893 54.7113C206.538 54.3687 206.299 54.0323 206.195 53.6897C206.085 53.3471 206.085 53.029 206.195 52.7231C206.391 52.1664 206.709 51.8544 207.15 51.7932C207.59 51.732 208.055 51.8422 208.538 52.1297C209.022 52.4356 209.529 52.5579 210.062 52.4906C210.588 52.4295 211.053 52.1909 211.45 51.7749C211.811 51.3772 212.013 50.9245 212.056 50.4045C212.099 49.8845 211.946 49.389 211.585 48.9241C211.426 48.6916 211.23 48.4775 211.004 48.2756" fill="#873A1E"/>
<path d="M123.54 72.2872C123.02 72.4096 122.488 72.5503 121.944 72.7032C122.353 72.5748 122.929 72.4096 123.54 72.2872Z" fill="#873A1E"/>
<path d="M126.832 73.89C126.819 73.939 126.801 73.9879 126.783 74.0369C126.777 74.0613 126.764 74.0858 126.758 74.1103C126.746 74.147 126.734 74.1837 126.715 74.2143C126.752 74.1041 126.795 73.994 126.832 73.8839" fill="#873A1E"/>
<path d="M119.448 36.4441C114.951 39.1481 108.907 40.8855 103.738 39.1236C98.5498 37.3556 98.7334 31.8926 102.086 28.2771C102.331 28.014 102.581 27.751 102.844 27.5002C103.389 26.974 104.141 26.7416 104.888 26.8578C107.011 27.1943 109.207 27.1576 111.391 26.6987C114.358 26.0748 118.206 24.3985 118.304 20.8503C118.414 16.8555 114.56 15.791 111.336 16.4823C108.418 17.1063 105.359 18.3666 102.618 20.1223C100.33 20.0367 98.2562 18.8866 97.0143 17.608C94.3776 14.8979 92.9583 15.7727 94.8548 19.0395C95.8214 20.7035 96.9654 23.071 97.8035 24.1783C96.739 25.3651 95.8336 26.662 95.1607 28.0507C92.1814 34.1194 94.1085 41.222 100.41 44.0789C107.408 47.2539 116.058 45.3208 122.396 41.5095C125.626 39.5641 122.684 34.4926 119.435 36.4441M105.75 22.3552C107.549 21.0033 111.531 18.2564 113.177 19.2536C115.753 20.8136 110.308 22.9364 105.94 23.0771C105.603 23.0894 105.469 22.5755 105.75 22.3614" fill="#873A1E"/>
<path d="M121.882 72.7216C121.528 72.8317 121.307 72.9173 121.307 72.9173L121.32 72.8867C121.503 72.8317 121.693 72.7766 121.876 72.7216" fill="#873A1E"/>
<path d="M126.715 74.2265C126.685 74.3183 126.654 74.3978 126.617 74.4896C126.636 74.4223 126.666 74.3366 126.715 74.2265Z" fill="#873A1E"/>
<path d="M125.908 66.7814C127.682 67.387 129.566 67.9498 131.371 68.4576C151.957 74.0674 173.797 76.6124 194.964 72.9112C199.784 72.0364 204.556 70.8006 209.187 69.1244C209.554 68.9898 209.774 69.5282 209.413 69.6872C204.874 71.6877 200.133 73.2783 195.306 74.4957C172.463 80.0688 148.274 78.5884 125.492 73.3639L124.746 73.1743L124.366 73.0764C122.445 72.7399 121.161 70.9046 121.681 68.9898C122.164 67.1729 124.134 66.139 125.902 66.7814" fill="#873A1E"/>
<path d="M216.956 57.7456C216.828 57.6294 216.681 57.5438 216.516 57.4765C216.351 57.4153 216.173 57.3847 215.984 57.3847C215.818 57.3847 215.653 57.4214 215.494 57.4948C215.335 57.5682 215.201 57.66 215.078 57.7701C214.956 57.8802 214.864 58.0087 214.791 58.1616C214.717 58.3146 214.681 58.4675 214.681 58.6266C214.681 58.804 214.717 58.9692 214.785 59.1221C214.852 59.275 214.95 59.4096 215.072 59.532C215.201 59.6543 215.347 59.7461 215.513 59.8134C215.678 59.8807 215.855 59.9174 216.045 59.9174C216.412 59.9174 216.724 59.8012 216.987 59.5626C217.25 59.324 217.378 59.0242 217.378 58.6633C217.366 58.4859 217.323 58.3207 217.25 58.1616C217.177 58.0026 217.079 57.868 216.95 57.7518" fill="#873A1E"/>
<path d="M226.439 47.9146C226.353 47.8963 226.298 47.884 226.267 47.884C226.078 47.8718 225.894 47.8535 225.711 47.829C225.527 47.8045 225.344 47.7984 225.166 47.8045C224.677 47.8351 224.218 47.9146 223.802 48.0309C223.38 48.1532 223.007 48.3367 222.67 48.5937C222.334 48.8506 222.046 49.181 221.795 49.5786C221.551 49.9824 221.355 50.4779 221.208 51.0652C221.116 51.4751 221.043 51.885 220.994 52.2948C220.945 52.7108 220.933 53.1268 220.957 53.5428C220.969 53.6346 220.969 53.7264 220.963 53.8181C220.963 53.9099 220.957 54.0078 220.957 54.124H220.376C220.009 54.124 219.703 54.228 219.452 54.4299C219.201 54.6318 219.048 54.8887 219 55.1946C218.957 55.5372 219.036 55.8431 219.232 56.0939C219.428 56.3508 219.721 56.5221 220.095 56.6078C220.241 56.6506 220.388 56.6751 220.541 56.6934C220.694 56.7118 220.853 56.7362 221.018 56.7668C221.037 56.8708 221.055 56.9748 221.067 57.0788C221.08 57.1828 221.086 57.2929 221.098 57.4092C221.128 57.8191 221.159 58.2289 221.184 58.6388C221.208 59.0548 221.251 59.4708 221.3 59.8868C221.343 60.2661 221.502 60.5536 221.777 60.7677C222.052 60.9757 222.389 61.0675 222.774 61.0492C223.129 61.0186 223.423 60.8779 223.655 60.627C223.888 60.3762 223.992 60.052 223.985 59.6543C223.973 59.275 223.955 58.8958 223.924 58.5165C223.894 58.1372 223.863 57.7456 223.832 57.348C223.82 57.2562 223.814 57.1522 223.808 57.0482C223.808 56.9442 223.802 56.8341 223.802 56.7179C223.998 56.7179 224.181 56.7179 224.352 56.724C224.518 56.724 224.683 56.724 224.842 56.7179C225.24 56.6995 225.564 56.5588 225.821 56.3019C226.078 56.0449 226.206 55.7452 226.206 55.4026C226.206 55.06 226.078 54.7541 225.821 54.5217C225.564 54.2892 225.227 54.173 224.811 54.1607H223.71C223.649 53.6162 223.649 53.0962 223.71 52.6068C223.771 52.1174 223.875 51.6341 224.022 51.1631C224.096 50.9551 224.206 50.7777 224.359 50.637C224.512 50.4963 224.707 50.4229 224.946 50.4229C225.093 50.4106 225.233 50.4045 225.38 50.4045C225.527 50.4045 225.668 50.4167 225.815 50.4351C226.188 50.4901 226.536 50.429 226.855 50.2516C227.173 50.0803 227.375 49.8233 227.46 49.493C227.546 49.1565 227.491 48.8384 227.301 48.5447C227.112 48.245 226.824 48.037 226.439 47.9085" fill="#873A1E"/>
<path d="M234.71 50.5085C234.532 50.2699 234.281 50.0925 233.957 49.9763C233.608 49.86 233.278 49.8294 232.954 49.8723C232.63 49.9212 232.318 50.0252 232.012 50.1965C231.865 50.2699 231.73 50.3494 231.602 50.429C231.473 50.5146 231.345 50.5941 231.21 50.6798C231.161 50.588 231.119 50.4963 231.088 50.4228C231.057 50.3433 231.015 50.2699 230.959 50.1965C230.813 49.9518 230.611 49.7805 230.348 49.6704C230.085 49.5603 229.828 49.5297 229.565 49.5847C229.265 49.6398 229.008 49.7621 228.812 49.964C228.61 50.1598 228.5 50.4045 228.463 50.6859C228.445 50.7716 228.433 50.8572 228.427 50.9551C228.427 51.0468 228.427 51.1386 228.433 51.2243C228.512 52.3927 228.598 53.5612 228.684 54.7235C228.769 55.8859 228.849 57.0543 228.935 58.2228C228.953 58.4308 228.996 58.6205 229.045 58.7856C229.161 59.1527 229.369 59.4219 229.681 59.5932C229.987 59.7644 230.329 59.8134 230.69 59.74C231.039 59.6543 231.308 59.4769 231.504 59.1955C231.706 58.9202 231.767 58.6021 231.694 58.2473C231.59 57.6845 231.553 57.1278 231.583 56.5894C231.614 56.0511 231.657 55.5066 231.712 54.9499C231.804 54.0812 232.195 53.3471 232.874 52.7537C232.991 52.6497 233.107 52.5701 233.229 52.509C233.351 52.4539 233.492 52.4233 233.657 52.4233C234 52.4111 234.294 52.301 234.532 52.093C234.765 51.885 234.899 51.6219 234.93 51.3099C234.96 51.0163 234.887 50.7532 234.71 50.5085Z" fill="#873A1E"/>
<path d="M230.36 62.9456C231.926 62.7193 233.284 63.7409 233.382 64.836C233.462 65.7597 232.795 67.4176 229.858 66.9771C223.973 66.0839 220.064 67.0444 216.865 67.387C216.32 67.4421 216.088 66.8058 216.602 66.5978C221.349 64.6708 222.474 64.0896 230.354 62.9517" fill="#873A1E"/>
<path d="M66.7016 22.3981C67.0625 22.7468 67.4846 23.0159 67.9679 23.2117C68.4512 23.4075 68.9651 23.5053 69.5034 23.5053C70.5618 23.5053 71.4672 23.1628 72.2197 22.4837C72.9721 21.8047 73.3514 20.9421 73.3514 19.8837C73.3208 19.3698 73.1985 18.8865 72.9905 18.4338C72.7825 17.9811 72.495 17.5896 72.134 17.2593C71.7731 16.9289 71.351 16.672 70.8677 16.4884C70.3844 16.3049 69.8705 16.2193 69.3321 16.2193C68.8489 16.2193 68.3839 16.3233 67.9312 16.5374C67.4785 16.7454 67.0809 17.0084 66.7322 17.3266C66.3835 17.6447 66.1082 18.024 65.894 18.4583C65.686 18.8988 65.5759 19.3393 65.5759 19.792C65.5759 20.2997 65.6738 20.7769 65.8696 21.2174C66.0653 21.6578 66.3406 22.0494 66.7016 22.3919" fill="#C9652F"/>
<path d="M50.6796 57.7885C48.0429 53.3716 43.6627 50.6064 38.6646 50.2088C38.5483 50.1965 38.4382 50.2516 38.3709 50.3433C38.3036 50.4351 38.2853 50.5575 38.3281 50.6676C41.9803 60.1009 50.2452 63.5329 52.6861 64.3588C52.7534 64.3833 52.8146 64.3894 52.8819 64.3894C53.041 64.3894 53.1939 64.3282 53.3101 64.212C53.4753 64.0468 53.5365 63.8082 53.4631 63.588C53.1144 62.4807 52.3497 60.5781 50.6796 57.7824M50.184 61.2082C48.7342 58.0577 46.6603 55.7697 44.4396 54.3565C43.9502 54.0139 43.4302 53.7386 42.9408 53.4389C43.3996 53.5857 43.9318 53.7876 44.4151 54.0629C46.5991 55.1701 49.1073 57.9842 50.184 61.2082Z" fill="#C9652F"/>
<path d="M55.4329 52.9494C49.6273 46.9664 43.7055 46.7951 40.0961 48.6243C39.9737 48.6854 39.9064 48.82 39.937 48.9546C39.9676 49.0892 40.0777 49.1871 40.2184 49.1932C51.2118 49.8417 55.0904 59.5136 56.2527 63.643C56.5647 64.7564 57.5496 65.5578 58.6998 65.6496C58.7732 65.6496 58.8466 65.6557 58.92 65.6557C59.8254 65.6557 60.6574 65.2214 61.1774 64.475C61.7402 63.6614 61.832 62.6458 61.4221 61.7466C60.376 59.4708 58.4918 56.1 55.4391 52.9494M54.2278 54.8153C53.096 52.5395 51.4014 50.9979 49.5539 50.1598C49.144 49.9518 48.7097 49.7989 48.2998 49.6214C48.6913 49.6826 49.1379 49.7744 49.5417 49.9334C51.377 50.5391 53.4264 52.4355 54.2278 54.8153Z" fill="#C9652F"/>
<path d="M65.8573 53.4205C61.9481 48.9057 57.1091 46.7217 51.8479 47.101C51.7133 47.1132 51.6093 47.2111 51.5971 47.3457C51.5788 47.4803 51.6583 47.6026 51.7868 47.6393C57.4394 49.4379 62.1255 54.9315 65.3434 63.539C65.7349 64.5851 66.726 65.2397 67.7904 65.2397C68.0045 65.2397 68.2187 65.2153 68.4328 65.1602L68.494 65.148C69.1914 64.9705 69.7909 64.5056 70.1457 63.8816C70.4944 63.2515 70.5678 62.5235 70.3537 61.8383C69.6257 59.5259 68.2493 56.1918 65.8573 53.4266" fill="#C9652F"/>
<path d="M64.1873 49.6582C64.3463 49.7499 64.5176 49.7989 64.695 49.7989C64.8786 49.7989 65.0682 49.7438 65.2334 49.6398C66.0409 49.1198 67.6315 48.1655 69.2221 47.621C69.3689 47.5721 69.4606 47.4252 69.4362 47.2723C69.4117 47.1194 69.2832 47.0092 69.1303 47.0031C67.1543 46.9787 65.4414 47.4619 64.3463 47.8779C63.9854 48.0125 63.7468 48.3368 63.7101 48.716C63.6795 49.1015 63.863 49.4624 64.1934 49.6582" fill="#C9652F"/>
<path d="M68.6408 53.4144C69.0629 53.4144 69.485 53.2553 69.8032 52.9311C71.3632 51.3711 74.5565 48.5631 78.4779 47.2784C78.6248 47.2295 78.7104 47.0888 78.6921 46.9358C78.6737 46.7829 78.5514 46.6666 78.3984 46.6605C75.0154 46.4648 71.198 47.8106 67.6559 50.4596C67.2766 50.7471 67.038 51.1814 67.0013 51.6586C66.9707 52.1358 67.142 52.6007 67.4846 52.9372C67.8027 53.2553 68.2187 53.4082 68.6408 53.4082" fill="#C9652F"/>
<path d="M76.1899 54.1791C77.9946 51.9767 81.5979 49.3523 84.981 48.6059C85.1278 48.5753 85.2257 48.453 85.2318 48.3062C85.2318 48.1593 85.14 48.0309 84.9993 47.9942C83.2007 47.4925 80.5396 47.9819 78.8328 48.6549C76.9669 49.3829 73.4554 51.2426 70.8554 55.5188C70.525 56.0633 70.5067 56.7546 70.8187 57.3174L70.9533 57.244L70.8248 57.3235L70.8431 57.3602C71.1613 57.9536 71.7547 58.3085 72.4276 58.3207C72.4337 58.3207 72.4398 58.3207 72.4521 58.3207C73.1189 58.3207 73.7123 57.9781 74.0427 57.3969C74.7768 56.1061 75.4986 55.0294 76.1961 54.1791M75.7189 52.2704C75.9024 51.9767 76.1226 51.6464 76.3857 51.3589C77.4869 50.0497 79.7137 48.9057 81.9221 48.869C79.6892 49.1932 77.8723 50.1476 76.5754 51.4078C76.2695 51.677 76.0003 51.989 75.7189 52.2704Z" fill="#C9652F"/>
<path d="M85.3175 49.5847C78.062 52.8821 74.783 60.0887 73.951 62.2237C73.8837 62.395 73.9326 62.5847 74.0733 62.7009C74.1529 62.7682 74.2507 62.8049 74.3486 62.8049C74.422 62.8049 74.4955 62.7865 74.5627 62.7437C80.087 59.5259 83.8982 55.2802 85.8926 50.1292C85.9537 49.964 85.917 49.7805 85.7886 49.6643C85.6601 49.5419 85.4766 49.5113 85.3175 49.5847Z" fill="#C9652F"/>
<path d="M38.5666 43.9871C38.6645 44.1401 38.7624 44.2869 38.8542 44.4398C39.0193 44.6478 39.2212 44.8069 39.4659 44.9048C39.8391 45.0944 40.2918 45.2045 40.7078 45.1128C41.0565 45.0394 41.3869 44.8864 41.6683 44.6662C42.0353 44.3787 42.3412 43.7975 42.3596 43.3326C42.384 42.8187 42.3534 42.3109 42.3596 41.7909C42.3596 41.0629 42.3963 40.3349 42.4207 39.6069C42.4146 39.8149 42.4085 40.0229 42.4024 40.2309C42.4636 39.5702 42.5186 38.9095 42.5798 38.2549C42.7327 37.1048 42.8979 35.9547 43.1243 34.8107C43.6565 32.6757 44.3356 30.5834 45.4367 28.6625C45.4795 28.5891 45.5224 28.5218 45.5652 28.4484C46.9967 26.2032 48.8565 24.2823 50.9854 22.6856C51.6339 22.1962 52.3252 21.7802 53.0103 21.3458C53.5915 20.9849 54.1788 20.624 54.7967 20.3364C55.384 20.0611 55.9835 19.8226 56.583 19.5901C56.999 19.5106 57.3783 19.3637 57.727 19.1374C57.831 19.0701 57.935 19.0212 58.0451 18.9661C58.143 18.9416 58.2348 18.9172 58.3327 18.8927C58.7119 18.7948 59.0301 18.6541 59.2748 18.336C59.495 18.0485 59.6235 17.6019 59.5562 17.2409C59.3971 16.4334 58.7119 15.9379 57.9044 16.0174C57.7454 16.0358 57.5863 16.0541 57.4334 16.0725C57.0418 16.0296 56.6687 15.9929 56.2833 16.048C56.1609 16.0663 56.0447 16.0847 55.9223 16.103C55.6715 16.1459 55.4207 16.1887 55.1698 16.2376C54.8395 16.3049 54.5091 16.3783 54.1788 16.4579C52.7779 16.7943 51.3953 17.143 50.0922 17.7548C49.2358 18.1586 48.3976 18.6113 47.5962 19.119C46.0974 20.0611 44.7515 21.2113 43.5341 22.4898C41.9864 24.1171 40.6956 25.9279 39.6678 27.9223C38.6584 29.8799 38.0405 31.9966 37.6796 34.1623C37.2146 36.9335 37.3309 39.8027 38.1017 42.5006C38.0466 42.317 37.9977 42.1274 37.9426 41.9439C38.1384 42.7086 38.2913 43.2653 38.5789 43.9871M40.5059 33.3119C40.7567 29.7392 43.2221 25.2061 47.1313 22.6917C43.5586 25.7505 41.5704 29.4884 40.9036 33.1895C40.7139 34.0154 40.6405 34.8719 40.512 35.6855C40.4509 34.9575 40.408 34.1133 40.5059 33.3119Z" fill="#C9652F"/>
<path d="M82.9622 40.2309C82.9438 40.2737 82.9255 40.3166 82.901 40.3594C82.9194 40.3166 82.9377 40.2737 82.9622 40.2309Z" fill="#C9652F"/>
<path d="M86.0577 36.8601C86.0088 36.2728 85.9354 35.6855 85.8497 35.1044C85.7029 34.1317 85.397 33.2201 85.0667 32.2903C84.7669 31.4583 84.357 30.6569 83.9288 29.8921C83.782 29.623 83.6168 29.3599 83.4455 29.103C83.0234 28.479 82.6074 28.014 82.0874 27.4757C82.2342 27.6286 82.3872 27.7816 82.534 27.9345C82.2526 27.6347 81.965 27.2983 81.6592 27.0046C81.3655 26.7232 81.0413 26.4908 80.6987 26.2705C80.2705 25.9769 79.8789 25.7077 79.4262 25.4385C79.5669 25.5242 79.7015 25.6037 79.8361 25.6832C79.5669 25.5119 79.3039 25.3284 79.0286 25.1755C78.9429 25.1265 78.8573 25.0898 78.7655 25.047C78.5698 24.9614 78.3801 24.9185 78.1844 24.8941C78.1476 24.8818 78.1171 24.8696 78.0804 24.8574C78.0253 24.8329 77.9764 24.8023 77.9274 24.7778C77.7989 24.7534 77.6705 24.7289 77.542 24.7044C77.3462 24.6861 77.1566 24.7166 76.9731 24.7962C76.6855 24.8941 76.4041 25.0837 76.2389 25.3468C75.9147 25.8729 75.8902 26.6559 76.3552 27.1209C76.3735 27.1515 76.398 27.1759 76.4225 27.2065C76.5204 27.4512 76.6488 27.6592 76.8385 27.8795C76.9364 27.9896 77.022 28.0997 77.1077 28.2159C77.2239 28.375 77.3462 28.5279 77.4625 28.687C77.646 29.0051 77.7928 29.3477 77.9886 29.6597C78.1599 29.935 78.3251 30.2103 78.4902 30.4856C78.7778 31.0545 79.0653 31.6296 79.3406 32.2046C79.573 32.7735 79.7811 33.3486 79.9646 33.9298C80.1603 34.7189 80.3133 35.5204 80.4295 36.3218C80.4723 36.7194 80.509 37.1109 80.5519 37.5086C80.5641 37.6738 80.5825 37.845 80.5947 38.0102C80.5947 38.0898 80.6069 38.1693 80.6069 38.2488C80.6069 38.31 80.6069 38.365 80.613 38.4262C80.613 38.4446 80.613 38.4629 80.613 38.4813C80.6253 38.8606 80.6375 39.2337 80.6436 39.613C80.6436 39.6926 80.6498 39.7599 80.6559 39.8394C80.7476 40.702 80.7232 41.5646 80.8394 42.421C80.9434 43.1857 81.5613 43.8097 82.2954 43.9871C83.0601 44.1707 83.8309 43.877 84.3081 43.253C84.5467 42.941 84.7363 42.6229 84.9076 42.2803C85.2441 41.5584 85.5805 40.8488 85.758 40.0596C85.813 39.821 85.8558 39.5763 85.8987 39.3377C85.9721 38.9218 86.0027 38.4935 86.021 38.0714C86.0394 37.6676 86.07 37.2578 86.0333 36.8601M82.5829 34.6761C82.4789 31.6601 81.1942 29.2253 79.2916 27.494C78.8879 27.0903 78.4107 26.7293 77.9825 26.3562C78.4535 26.5948 78.9796 26.8884 79.414 27.2371C81.445 28.6992 82.9683 31.6907 82.5829 34.6761Z" fill="#C9652F"/>
<path d="M55.4574 29.3416C57.8861 31.3237 62.823 35.7467 61.1896 37.7288C58.6264 40.8304 54.6866 34.6761 54.2278 29.6169C54.1911 29.2253 55.072 29.0296 55.4574 29.3416Z" fill="#C9652F"/>
<path d="M62.615 23.5788C63.8079 25.9585 65.9919 30.9138 62.3886 32.2719C59.1646 33.4893 59.3787 26.8272 61.6178 23.1322C61.7891 22.8447 62.4253 23.1995 62.615 23.5788Z" fill="#C9652F"/>
<path d="M53.4447 37.5759C57.2988 38.4079 62.4743 41.277 61.5689 43.6813C60.1374 47.4436 54.4296 42.8799 52.368 38.2305C52.2089 37.8695 52.9614 37.4719 53.4447 37.5759Z" fill="#C9652F"/>
<path d="M69.8582 30.1001C69.3994 35.1655 65.4596 41.3137 62.8963 38.2121C61.2629 36.23 64.2973 32.2964 68.6285 29.8249C69.0568 29.5802 69.8888 29.7086 69.8582 30.1001Z" fill="#C9652F"/>
<path d="M71.5773 37.8634C69.9683 42.6841 64.7133 47.7678 62.9331 44.1584C61.8013 41.8582 67.6253 38.6832 70.4394 37.3128C70.8799 37.0987 71.6935 37.4902 71.5711 37.8634" fill="#C9652F"/>
</svg>
